<svg xmlns="http://www.w3.org/2000/svg" width="30" height="30"><g data-name="Group 2487"><g data-name="Group 301"><path d="M15 0A15 15 0 110 15 15 15 0 0115 0z" fill="#ed9472"/><path d="M21.975 18.889a6.5 6.5 0 01-.454 2.456 5.83 5.83 0 01-1.253 1.934 5.721 5.721 0 01-1.886 1.266 6.035 6.035 0 01-2.355.455 4.965 4.965 0 01-1.321-.165 5.451 5.451 0 01-1.126-.447 6.392 6.392 0 01-1.009-.671q-.481-.389-.969-.843-.576-.8-1.249-1.672-.288-.373-.619-.794t-.7-.874q-.367-.453-.764-.92t-.807-.924l-.036-.027a1.032 1.032 0 01-.278-.294.958.958 0 01-.141-.4L7 16.863a.921.921 0 01.07-.355.984.984 0 01.193-.3 1.028 1.028 0 01.293-.216 1.126 1.126 0 01.369-.109l.1-.008a1 1 0 01.341.068 1.609 1.609 0 01.434.157 6.244 6.244 0 01.546.322q.292.19.606.419t.624.461q.31.232.6.455t.514.393V6.478a3.113 3.113 0 01.043-.524 1.7 1.7 0 01.149-.473.963.963 0 01.284-.346A.707.707 0 0112.6 5a.729.729 0 01.45.135 1.04 1.04 0 01.3.346 1.654 1.654 0 01.166.473 2.7 2.7 0 01.052.524v7.572a1.1 1.1 0 00.106.286.826.826 0 00.148.195.3.3 0 00.218.084.38.38 0 00.36-.181.754.754 0 00.1-.384v-3.614a2.614 2.614 0 01.047-.5 1.4 1.4 0 01.158-.436.91.91 0 01.288-.3.78.78 0 01.441-.119.8.8 0 01.446.119.9.9 0 01.292.308 1.4 1.4 0 01.156.435 2.614 2.614 0 01.048.5v3.607a.642.642 0 00.131.384.4.4 0 00.332.181.271.271 0 00.193-.084.826.826 0 00.148-.195 2.342 2.342 0 00.131-.286v-2.709a2.607 2.607 0 01.047-.5 1.411 1.411 0 01.156-.435.894.894 0 01.286-.306.787.787 0 01.441-.118.8.8 0 01.45.118.893.893 0 01.288.308 1.437 1.437 0 01.158.435 2.538 2.538 0 01.049.5v3.188a.394.394 0 00.148.317.53.53 0 00.349.123.275.275 0 00.187-.071.763.763 0 00.138-.154 1.284 1.284 0 00.115-.219v-2.276a2.338 2.338 0 01.047-.451 1.547 1.547 0 01.158-.443.982.982 0 01.293-.334.745.745 0 01.446-.131.775.775 0 01.439.119.923.923 0 01.289.308 1.373 1.373 0 01.158.435 2.614 2.614 0 01.047.5z" fill="#052231"/></g></g></svg>