<svg data-name="Component 7 – 1" xmlns="http://www.w3.org/2000/svg" width="50.159" height="50.159"><defs><linearGradient id="a" x1=".5" x2=".5" y2="1" gradientUnits="objectBoundingBox"><stop offset="0" stop-color="#d8f5ec"/><stop offset="1" stop-color="#1b6084"/></linearGradient></defs><g data-name="Component 5 – 1"><path data-name="Path 2565" d="M25.08 0A25.08 25.08 0 110 25.08 25.08 25.08 0 0125.08 0z" fill="url(#a)"/></g><path data-name="Path 1452" d="M25.079 11.774a13.305 13.305 0 1013.306 13.305 13.32 13.32 0 00-13.306-13.305zm0 25.546A12.241 12.241 0 1137.32 25.079 12.255 12.255 0 0125.079 37.32z" fill="#052231" stroke="#052231"/><path data-name="Path 1453" d="M21.827 17.616a.532.532 0 00-.843.432v14.068a.532.532 0 00.844.431l9.757-7.045a.532.532 0 000-.863zm.221 13.464V19.083l8.315 5.988z" fill="#052231" stroke="#052232"/></svg>