<svg xmlns="http://www.w3.org/2000/svg" width="80.544" height="55.002"><defs><linearGradient id="a" x1=".5" x2=".5" y2="1" gradientUnits="objectBoundingBox"><stop offset="0" stop-color="#55a3e3"/><stop offset="1" stop-color="#203f8c"/></linearGradient></defs><path data-name="Path 711" d="M22.183 32.541h.98a49.142 49.142 0 017.641.2c5.485.98 9.012 4.31 10.579 9.6a12.3 12.3 0 01.588 3.722v10.574A13.117 13.117 0 0129.627 68.98a113.736 113.736 0 01-11.559 0c-6.269-.2-11.951-5.29-12.342-11.559a116.11 116.11 0 010-14.3c.2-4.114 1.763-8.032 3.33-11.755A54.7 54.7 0 0115.522 20a48.909 48.909 0 014.506-4.5 6.185 6.185 0 013.722-1.371 1.89 1.89 0 011.959 2.351c-.784 3.918-1.763 7.836-2.547 11.755-.392 1.365-.587 2.738-.979 4.306z" transform="translate(38.574 -14.125)" fill="url(#a)"/><path data-name="Path 712" d="M44.707 32.345h6.073a13.535 13.535 0 0113.714 12.342 91.633 91.633 0 01-.2 12.734c-.392 6.073-6.073 11.167-12.342 11.363q-5.877.294-11.755 0a12.978 12.978 0 01-12.142-11.363 11.171 11.171 0 01-.2-2.547v-7.248a35.118 35.118 0 012.355-13.518A54.011 54.011 0 0137.655 20a17.888 17.888 0 014.7-4.7 5.47 5.47 0 013.526-1.175 1.9 1.9 0 011.959 2.547 128.713 128.713 0 00-3.135 15.085c.195 0 .002.196.002.588z" transform="translate(-27.834 -13.929)" fill="url(#a)"/></svg>